<svg xmlns="http://www.w3.org/2000/svg" viewBox="0 0 24 24" width="128" height="128">
  <rect x="2" y="3" width="20" height="14" rx="2" ry="2" fill="#4285f4" />
  <rect x="4" y="5" width="16" height="10" rx="1" ry="1" fill="white" />
  <path d="M7 8h10v1H7z" fill="#4285f4" />
  <path d="M7 10h8v1H7z" fill="#4285f4" />
  <path d="M7 12h6v1H7z" fill="#4285f4" />
  <rect x="6" y="17" width="12" height="4" rx="1" ry="1" fill="#0f9d58" />
  <path d="M8 18h8v1H8z" fill="white" />
  <path d="M8 20h6v1H8z" fill="white" />
  <path d="M2 9v8h4v-2H4V9H2z" fill="#db4437" />
  <path d="M22 9v6h-2v2h4V9h-2z" fill="#db4437" />
</svg>